<mxfile host="app.diagrams.net" modified="2022-04-29T14:13:26.856Z" agent="5.0 (Windows NT 10.0; Win64; x64) AppleWebKit/537.36 (KHTML, like Gecko) Chrome/100.0.4896.127 Safari/537.36" etag="e-DizvIe5D-HHmqLCknO" version="17.4.6" type="github">
  <diagram id="NCQrOcMgqhRGQzQzjKNu" name="Page-1">
    <mxGraphModel dx="1038" dy="2143" grid="1" gridSize="10" guides="1" tooltips="1" connect="1" arrows="1" fold="1" page="1" pageScale="1" pageWidth="1169" pageHeight="1654" math="0" shadow="0">
      <root>
        <mxCell id="0" />
        <mxCell id="1" parent="0" />
        <mxCell id="Om0AXbTAwy9AHvJS87D7-69" value="" style="rounded=0;whiteSpace=wrap;html=1;" vertex="1" parent="1">
          <mxGeometry x="705" y="41" width="120" height="30" as="geometry" />
        </mxCell>
        <mxCell id="Om0AXbTAwy9AHvJS87D7-68" value="" style="rounded=0;whiteSpace=wrap;html=1;" vertex="1" parent="1">
          <mxGeometry x="537" y="36" width="120" height="30" as="geometry" />
        </mxCell>
        <mxCell id="Om0AXbTAwy9AHvJS87D7-67" value="" style="rounded=0;whiteSpace=wrap;html=1;" vertex="1" parent="1">
          <mxGeometry x="377" y="40" width="120" height="30" as="geometry" />
        </mxCell>
        <mxCell id="Om0AXbTAwy9AHvJS87D7-66" value="" style="rounded=0;whiteSpace=wrap;html=1;" vertex="1" parent="1">
          <mxGeometry x="200" y="40" width="120" height="30" as="geometry" />
        </mxCell>
        <mxCell id="Om0AXbTAwy9AHvJS87D7-40" value="ALT" style="shape=umlFrame;whiteSpace=wrap;html=1;" vertex="1" parent="1">
          <mxGeometry x="180" y="206.5" width="552" height="201" as="geometry" />
        </mxCell>
        <mxCell id="Om0AXbTAwy9AHvJS87D7-4" value="" style="rounded=0;whiteSpace=wrap;html=1;" vertex="1" parent="1">
          <mxGeometry x="68" y="100" width="20" height="460" as="geometry" />
        </mxCell>
        <mxCell id="Om0AXbTAwy9AHvJS87D7-6" value="submitCart()" style="text;html=1;strokeColor=none;fillColor=none;align=center;verticalAlign=middle;whiteSpace=wrap;rounded=0;" vertex="1" parent="1">
          <mxGeometry x="123" y="105" width="100" height="30" as="geometry" />
        </mxCell>
        <mxCell id="Om0AXbTAwy9AHvJS87D7-8" value="" style="endArrow=none;dashed=1;html=1;rounded=0;entryX=0.5;entryY=1;entryDx=0;entryDy=0;" edge="1" parent="1">
          <mxGeometry width="50" height="50" relative="1" as="geometry">
            <mxPoint x="77.5" y="430" as="sourcePoint" />
            <mxPoint x="77.5" y="70" as="targetPoint" />
          </mxGeometry>
        </mxCell>
        <mxCell id="Om0AXbTAwy9AHvJS87D7-10" value="" style="endArrow=classic;html=1;rounded=0;" edge="1" parent="1">
          <mxGeometry width="50" height="50" relative="1" as="geometry">
            <mxPoint x="90" y="140" as="sourcePoint" />
            <mxPoint x="240" y="140" as="targetPoint" />
          </mxGeometry>
        </mxCell>
        <mxCell id="Om0AXbTAwy9AHvJS87D7-33" value="MyCart.Vue" style="text;html=1;strokeColor=none;fillColor=none;align=center;verticalAlign=middle;whiteSpace=wrap;rounded=0;" vertex="1" parent="1">
          <mxGeometry x="178" y="40" width="170" height="30" as="geometry" />
        </mxCell>
        <mxCell id="Om0AXbTAwy9AHvJS87D7-34" value="ProductsCart" style="text;html=1;strokeColor=none;fillColor=none;align=center;verticalAlign=middle;whiteSpace=wrap;rounded=0;" vertex="1" parent="1">
          <mxGeometry x="355" y="40" width="170" height="30" as="geometry" />
        </mxCell>
        <mxCell id="Om0AXbTAwy9AHvJS87D7-36" value="Order.Json/Database" style="text;html=1;strokeColor=none;fillColor=none;align=center;verticalAlign=middle;whiteSpace=wrap;rounded=0;" vertex="1" parent="1">
          <mxGeometry x="680" y="40" width="170" height="30" as="geometry" />
        </mxCell>
        <mxCell id="Om0AXbTAwy9AHvJS87D7-38" value="" style="endArrow=classic;html=1;rounded=0;exitX=1;exitY=0;exitDx=0;exitDy=0;" edge="1" parent="1">
          <mxGeometry width="50" height="50" relative="1" as="geometry">
            <mxPoint x="260" y="138" as="sourcePoint" />
            <mxPoint x="270" y="188" as="targetPoint" />
            <Array as="points">
              <mxPoint x="320" y="138" />
              <mxPoint x="320" y="188" />
            </Array>
          </mxGeometry>
        </mxCell>
        <mxCell id="Om0AXbTAwy9AHvJS87D7-39" value="beforeCreated()" style="text;html=1;strokeColor=none;fillColor=none;align=center;verticalAlign=middle;whiteSpace=wrap;rounded=0;" vertex="1" parent="1">
          <mxGeometry x="326" y="149" width="85" height="30" as="geometry" />
        </mxCell>
        <mxCell id="Om0AXbTAwy9AHvJS87D7-44" value="[productsCart.length&amp;gt;0]" style="text;html=1;strokeColor=none;fillColor=none;align=center;verticalAlign=middle;whiteSpace=wrap;rounded=0;" vertex="1" parent="1">
          <mxGeometry x="296.5" y="218" width="85" height="30" as="geometry" />
        </mxCell>
        <mxCell id="Om0AXbTAwy9AHvJS87D7-47" value="" style="endArrow=classic;html=1;rounded=0;exitX=1;exitY=0;exitDx=0;exitDy=0;" edge="1" parent="1">
          <mxGeometry width="50" height="50" relative="1" as="geometry">
            <mxPoint x="607" y="321" as="sourcePoint" />
            <mxPoint x="617" y="371" as="targetPoint" />
            <Array as="points">
              <mxPoint x="667" y="321" />
              <mxPoint x="667" y="371" />
            </Array>
          </mxGeometry>
        </mxCell>
        <mxCell id="Om0AXbTAwy9AHvJS87D7-41" value="LOOP" style="shape=umlFrame;whiteSpace=wrap;html=1;" vertex="1" parent="1">
          <mxGeometry x="340" y="271" width="380" height="119" as="geometry" />
        </mxCell>
        <mxCell id="Om0AXbTAwy9AHvJS87D7-51" value="[foreach productCart]" style="text;html=1;align=center;verticalAlign=middle;resizable=0;points=[];autosize=1;strokeColor=none;fillColor=none;" vertex="1" parent="1">
          <mxGeometry x="444" y="297" width="130" height="20" as="geometry" />
        </mxCell>
        <mxCell id="Om0AXbTAwy9AHvJS87D7-52" value="" style="endArrow=classic;html=1;rounded=0;exitX=0.053;exitY=0.409;exitDx=0;exitDy=0;exitPerimeter=0;entryX=-0.14;entryY=0.417;entryDx=0;entryDy=0;entryPerimeter=0;" edge="1" parent="1">
          <mxGeometry width="50" height="50" relative="1" as="geometry">
            <mxPoint x="439.75" y="321.88" as="sourcePoint" />
            <mxPoint x="587.2" y="320.46000000000004" as="targetPoint" />
            <Array as="points" />
          </mxGeometry>
        </mxCell>
        <mxCell id="Om0AXbTAwy9AHvJS87D7-53" value="" style="endArrow=classic;html=1;rounded=0;exitX=0;exitY=0.5;exitDx=0;exitDy=0;dashed=1;startArrow=none;startFill=0;" edge="1" parent="1">
          <mxGeometry width="50" height="50" relative="1" as="geometry">
            <mxPoint x="587" y="370" as="sourcePoint" />
            <mxPoint x="440" y="370" as="targetPoint" />
          </mxGeometry>
        </mxCell>
        <mxCell id="Om0AXbTAwy9AHvJS87D7-54" value="cart price" style="text;html=1;strokeColor=none;fillColor=none;align=center;verticalAlign=middle;whiteSpace=wrap;rounded=0;" vertex="1" parent="1">
          <mxGeometry x="482" y="345" width="60" height="30" as="geometry" />
        </mxCell>
        <mxCell id="Om0AXbTAwy9AHvJS87D7-55" value="CalculCartPrice()" style="text;html=1;strokeColor=none;fillColor=none;align=center;verticalAlign=middle;whiteSpace=wrap;rounded=0;" vertex="1" parent="1">
          <mxGeometry x="624" y="294" width="60" height="30" as="geometry" />
        </mxCell>
        <mxCell id="Om0AXbTAwy9AHvJS87D7-56" value="" style="rounded=0;whiteSpace=wrap;html=1;" vertex="1" parent="1">
          <mxGeometry x="751" y="244" width="20" height="316" as="geometry" />
        </mxCell>
        <mxCell id="Om0AXbTAwy9AHvJS87D7-17" value="" style="endArrow=none;dashed=1;html=1;rounded=0;entryX=0.5;entryY=1;entryDx=0;entryDy=0;startArrow=none;" edge="1" parent="1">
          <mxGeometry width="50" height="50" relative="1" as="geometry">
            <mxPoint x="760" y="430" as="sourcePoint" />
            <mxPoint x="760" y="68" as="targetPoint" />
          </mxGeometry>
        </mxCell>
        <mxCell id="Om0AXbTAwy9AHvJS87D7-57" value="" style="endArrow=classic;html=1;rounded=0;dashed=1;exitX=0;exitY=0.909;exitDx=0;exitDy=0;exitPerimeter=0;" edge="1" parent="1" source="Om0AXbTAwy9AHvJS87D7-11">
          <mxGeometry width="50" height="50" relative="1" as="geometry">
            <mxPoint x="460" y="598" as="sourcePoint" />
            <mxPoint x="90" y="520" as="targetPoint" />
          </mxGeometry>
        </mxCell>
        <mxCell id="Om0AXbTAwy9AHvJS87D7-58" value="cart submitted" style="text;html=1;strokeColor=none;fillColor=none;align=center;verticalAlign=middle;whiteSpace=wrap;rounded=0;" vertex="1" parent="1">
          <mxGeometry x="124" y="489" width="93" height="30" as="geometry" />
        </mxCell>
        <mxCell id="Om0AXbTAwy9AHvJS87D7-60" value="" style="endArrow=classic;html=1;rounded=0;exitX=1;exitY=0.75;exitDx=0;exitDy=0;" edge="1" parent="1" source="Om0AXbTAwy9AHvJS87D7-11">
          <mxGeometry width="50" height="50" relative="1" as="geometry">
            <mxPoint x="460" y="504" as="sourcePoint" />
            <mxPoint x="750" y="460" as="targetPoint" />
          </mxGeometry>
        </mxCell>
        <mxCell id="Om0AXbTAwy9AHvJS87D7-61" value="Cart.Json/Database" style="text;html=1;strokeColor=none;fillColor=none;align=center;verticalAlign=middle;whiteSpace=wrap;rounded=0;" vertex="1" parent="1">
          <mxGeometry x="512" y="38" width="170" height="30" as="geometry" />
        </mxCell>
        <mxCell id="Om0AXbTAwy9AHvJS87D7-62" value="createOrder()" style="text;html=1;strokeColor=none;fillColor=none;align=center;verticalAlign=middle;whiteSpace=wrap;rounded=0;" vertex="1" parent="1">
          <mxGeometry x="295" y="420" width="60" height="30" as="geometry" />
        </mxCell>
        <mxCell id="Om0AXbTAwy9AHvJS87D7-63" value="&lt;h1&gt;Submit Cart&lt;/h1&gt;" style="text;html=1;strokeColor=none;fillColor=none;spacing=5;spacingTop=-20;whiteSpace=wrap;overflow=hidden;rounded=0;" vertex="1" parent="1">
          <mxGeometry x="384" y="-20" width="190" height="120" as="geometry" />
        </mxCell>
        <mxCell id="Om0AXbTAwy9AHvJS87D7-5" value="" style="rounded=0;whiteSpace=wrap;html=1;" vertex="1" parent="1">
          <mxGeometry x="420" y="180" width="20" height="380" as="geometry" />
        </mxCell>
        <mxCell id="Om0AXbTAwy9AHvJS87D7-9" value="" style="endArrow=none;dashed=1;html=1;rounded=0;entryX=0.5;entryY=1;entryDx=0;entryDy=0;" edge="1" parent="1">
          <mxGeometry width="50" height="50" relative="1" as="geometry">
            <mxPoint x="429.5" y="433" as="sourcePoint" />
            <mxPoint x="429.5" y="73" as="targetPoint" />
          </mxGeometry>
        </mxCell>
        <mxCell id="Om0AXbTAwy9AHvJS87D7-50" value="" style="rounded=0;whiteSpace=wrap;html=1;" vertex="1" parent="1">
          <mxGeometry x="587" y="200" width="20" height="360" as="geometry" />
        </mxCell>
        <mxCell id="Om0AXbTAwy9AHvJS87D7-13" value="" style="endArrow=none;dashed=1;html=1;rounded=0;entryX=0.5;entryY=1;entryDx=0;entryDy=0;" edge="1" parent="1">
          <mxGeometry width="50" height="50" relative="1" as="geometry">
            <mxPoint x="596" y="430" as="sourcePoint" />
            <mxPoint x="596" y="70" as="targetPoint" />
          </mxGeometry>
        </mxCell>
        <mxCell id="Om0AXbTAwy9AHvJS87D7-11" value="" style="rounded=0;whiteSpace=wrap;html=1;" vertex="1" parent="1">
          <mxGeometry x="250" y="138" width="20" height="422" as="geometry" />
        </mxCell>
        <mxCell id="Om0AXbTAwy9AHvJS87D7-12" value="" style="endArrow=none;dashed=1;html=1;rounded=0;entryX=0.5;entryY=1;entryDx=0;entryDy=0;" edge="1" parent="1">
          <mxGeometry width="50" height="50" relative="1" as="geometry">
            <mxPoint x="260" y="430" as="sourcePoint" />
            <mxPoint x="260" y="70" as="targetPoint" />
          </mxGeometry>
        </mxCell>
        <mxCell id="Om0AXbTAwy9AHvJS87D7-65" value="Customer" style="shape=umlActor;verticalLabelPosition=bottom;verticalAlign=top;html=1;outlineConnect=0;" vertex="1" parent="1">
          <mxGeometry x="63" y="-10" width="30" height="60" as="geometry" />
        </mxCell>
      </root>
    </mxGraphModel>
  </diagram>
</mxfile>
